<?xml version="1.0" encoding="UTF-8"?>
<svg id="b" data-name="Capa 2" xmlns="http://www.w3.org/2000/svg" viewBox="0 0 832.5 677.84">
  <g id="c" data-name="e66cdcae-b662-46fb-b424-18ba1a805fb0">
    <g>
      <ellipse cx="667" cy="643.84" rx="151" ry="34" style="fill: #4285f4;"/>
      <ellipse cx="681" cy="633.84" rx="151" ry="34" style="fill: none; stroke: #3f3d56; stroke-miterlimit: 10;"/>
      <circle cx="436.5" cy="304.34" r="30" style="fill: #4285f4;"/>
      <circle cx="557.5" cy="304.34" r="30" style="fill: #4285f4;"/>
      <circle cx="678.5" cy="304.34" r="30" style="fill: #4285f4;"/>
      <circle cx="12.5" cy="20.34" r="3" style="fill: #f86b75;"/>
      <circle cx="21.5" cy="20.34" r="3" style="fill: #fad375;"/>
      <circle cx="30.5" cy="20.34" r="3" style="fill: #8bcc55;"/>
      <rect x="67" y="66.84" width="206" height="64" style="fill: #4285f4;"/>
      <rect x=".5" y="10.34" width="364" height="216" style="fill: none; stroke: #3f3d56; stroke-miterlimit: 10;"/>
      <line x1=".5" y1="26.7" x2="364.5" y2="26.7" style="fill: none; stroke: #3f3d56; stroke-miterlimit: 10;"/>
      <circle cx="13.5" cy="18.34" r="3" style="fill: none; stroke: #3f3d56; stroke-miterlimit: 10;"/>
      <circle cx="22.5" cy="18.34" r="3" style="fill: none; stroke: #3f3d56; stroke-miterlimit: 10;"/>
      <circle cx="31.5" cy="18.34" r="3" style="fill: none; stroke: #3f3d56; stroke-miterlimit: 10;"/>
      <rect x="79.5" y="54.34" width="206" height="64" style="fill: none; stroke: #3f3d56; stroke-miterlimit: 10;"/>
      <rect x="41" y="158.84" width="276" height="8.28" style="fill: #f2f2f2;"/>
      <rect x="41" y="178.71" width="276" height="8.28" style="fill: #f2f2f2;"/>
      <rect x="41" y="198.57" width="276" height="8.28" style="fill: #f2f2f2;"/>
      <rect x="44" y="154.84" width="276" height="8.28" style="fill: none; stroke: #3f3d56; stroke-miterlimit: 10;"/>
      <rect x="44" y="174.71" width="276" height="8.28" style="fill: none; stroke: #3f3d56; stroke-miterlimit: 10;"/>
      <rect x="44" y="194.57" width="276" height="8.28" style="fill: none; stroke: #3f3d56; stroke-miterlimit: 10;"/>
      <circle cx="96.5" cy="394.34" r="3" style="fill: #f86b75;"/>
      <circle cx="105.5" cy="394.34" r="3" style="fill: #fad375;"/>
      <circle cx="114.5" cy="394.34" r="3" style="fill: #8bcc55;"/>
      <rect x="151" y="440.84" width="206" height="64" style="fill: #4285f4;"/>
      <polyline points="448.5 428.34 448.5 600.34 84.5 600.34 84.5 384.34 380.5 384.34" style="fill: none; stroke: #3f3d56; stroke-miterlimit: 10;"/>
      <line x1="84.5" y1="400.7" x2="381" y2="400.7" style="fill: none; stroke: #3f3d56; stroke-miterlimit: 10;"/>
      <circle cx="97.5" cy="392.34" r="3" style="fill: none; stroke: #3f3d56; stroke-miterlimit: 10;"/>
      <circle cx="106.5" cy="392.34" r="3" style="fill: none; stroke: #3f3d56; stroke-miterlimit: 10;"/>
      <circle cx="115.5" cy="392.34" r="3" style="fill: none; stroke: #3f3d56; stroke-miterlimit: 10;"/>
      <rect x="163.5" y="428.34" width="206" height="64" style="fill: none; stroke: #3f3d56; stroke-miterlimit: 10;"/>
      <circle cx="392.5" cy="221.34" r="3" style="fill: #f86b75;"/>
      <circle cx="401.5" cy="221.34" r="3" style="fill: #fad375;"/>
      <circle cx="410.5" cy="221.34" r="3" style="fill: #8bcc55;"/>
      <rect x="380.5" y="211.34" width="364" height="216" style="fill: none; stroke: #3f3d56; stroke-miterlimit: 10;"/>
      <line x1="380.5" y1="227.7" x2="744.5" y2="227.7" style="fill: none; stroke: #3f3d56; stroke-miterlimit: 10;"/>
      <circle cx="393.5" cy="219.34" r="3" style="fill: none; stroke: #3f3d56; stroke-miterlimit: 10;"/>
      <circle cx="402.5" cy="219.34" r="3" style="fill: none; stroke: #3f3d56; stroke-miterlimit: 10;"/>
      <circle cx="411.5" cy="219.34" r="3" style="fill: none; stroke: #3f3d56; stroke-miterlimit: 10;"/>
      <circle cx="441.5" cy="299.34" r="30" style="fill: none; stroke: #3f3d56; stroke-miterlimit: 10;"/>
      <circle cx="562.5" cy="299.34" r="30" style="fill: none; stroke: #3f3d56; stroke-miterlimit: 10;"/>
      <circle cx="683.5" cy="299.34" r="30" style="fill: none; stroke: #3f3d56; stroke-miterlimit: 10;"/>
      <rect x="396" y="354.84" width="82" height="8" style="fill: #f2f2f2;"/>
      <rect x="518" y="354.84" width="82" height="8" style="fill: #f2f2f2;"/>
      <rect x="640" y="354.84" width="82" height="8" style="fill: #f2f2f2;"/>
      <rect x="400" y="351.84" width="82" height="8" style="fill: none; stroke: #3f3d56; stroke-miterlimit: 10;"/>
      <rect x="522" y="351.84" width="82" height="8" style="fill: none; stroke: #3f3d56; stroke-miterlimit: 10;"/>
      <rect x="644" y="351.84" width="82" height="8" style="fill: none; stroke: #3f3d56; stroke-miterlimit: 10;"/>
      <rect x="98" y="529.84" width="63" height="54" style="fill: #f2f2f2;"/>
      <rect x="214.5" y="530.34" width="63" height="54" style="fill: #f2f2f2;"/>
      <rect x="331" y="530.84" width="63" height="54" style="fill: #f2f2f2;"/>
      <rect x="107" y="519.84" width="63" height="54" style="fill: none; stroke: #3f3d56; stroke-miterlimit: 10;"/>
      <rect x="223.5" y="520.34" width="63" height="54" style="fill: none; stroke: #3f3d56; stroke-miterlimit: 10;"/>
      <rect x="340" y="520.84" width="63" height="54" style="fill: none; stroke: #3f3d56; stroke-miterlimit: 10;"/>
      <polygon points="600.79 204.49 572.73 220.04 602.65 209.48 600.79 204.49" style="fill: #79758c;"/>
      <ellipse cx="608.56" cy="204.79" rx="7.83" ry="15.77" transform="translate(-33.5 198.01) rotate(-17.99)" style="fill: #3f3d56;"/>
      <ellipse cx="632.96" cy="192.76" rx="5.91" ry="11.14" transform="translate(-28.59 204.96) rotate(-17.99)" style="fill: #3f3d56;"/>
      <polygon points="610.36 195.68 628.98 188.96 632.93 199.92 614.92 212.09 610.36 195.68" style="fill: #3f3d56;"/>
      <path d="m608.58,235.97l5-11s12-32,1-26-15,22-15,22l-3,10,12,5Z" style="fill: #a0616a;"/>
      <path d="m745.58,401.97s-17,33-22,34-5-30-5-30c0,0,10-9,14-8s13,4,13,4Z" style="fill: #a0616a;"/>
      <path d="m720.58,609.97s9,5,5,16-6,8-8,17-20,8-21,4-3-20,2-26,22-11,22-11Z" style="fill: #55536e;"/>
      <path d="m631.58,609.97s-9,5-5,16,6,8,8,17,20,8,21,4,3-20-2-26-22-11-22-11Z" style="fill: #55536e;"/>
      <path d="m715.58,409.97s8,5,10,36-1,66-2,74,1,20,3,26-5,52-5,52c2.99,6.33,2.99,13.67,0,20-5,11-20,22-24,11-.21-3.84-1.23-7.59-3-11-3-6,2-30,2-30,0,0-4-38-3-48s-12-69-14-79-1-18-2-15-19,86-19,86c0,0,2,53,1,60s4,21,1,26-9,23-20,12-9-15-10-20,0-11,0-19-8-53-4-60,2-16,1-32-2-93,8-107,80,18,80,18Z" style="fill: #3f3d56;"/>
      <circle cx="691.08" cy="198.47" r="24" style="fill: #a0616a;"/>
      <path d="m706.58,207.97s-1,36,4,42-43-5-43-5c0,0,11-23,4-38s35,1,35,1Z" style="fill: #a0616a;"/>
      <path d="m715.58,245.97s-2-8-14-10-26.19-4-30.6,0-6.4,9-9.4,9h-14l-22,39s11,13,8,37-8,68-8,68c8.02,10.67,15.05,22.05,21,34,10,20,79,18,75-17,0,0-5-9-3-17s8-62,8-62l23-61s-32-16-34-20Z" style="fill: #55536e;"/>
      <path d="m742.58,264.97h7s4,23,3,37-1,47-1,47c0,0,4,8,3,15s-3,26-3,26c0,0-1,27-20,13,0,0-6-3-3-16s-2-27-2-27c0,0,3-9,2-15s-5-25-5-25l19-55Z" style="fill: #55536e;"/>
      <path d="m652.58,247.97l-5-3s-7-3-17,0-15,2-19,1-1-11-1-11c0,0-8-14-16-6s-8,24-8,24c0,0-5,10,13,16s26,15,26,15h20l7-36Z" style="fill: #55536e;"/>
      <path d="m689.46,227.12c-.06-1.82-1.19-3.44-2.88-4.13-1.1-.38-2.25-.6-3.42-.67-3.41-.44-6.91-1.69-8.89-4.29-2.64-3.46-1.92-8.31-4.04-12.07-.98-1.48-2.06-2.9-3.23-4.24-3.69-4.94-4.35-11.26-4.68-17.26-.17-1.22-.03-2.46.41-3.61.63-1.03,1.4-1.98,2.28-2.82,1.49-1.73,2.3-3.95,2.26-6.24-.11-4.65,6.55-7.78,11.26-9.38s9.82-1.86,14.84-1.93c2.89-.04,5.87,0,8.52,1.05,1.53.66,2.96,1.52,4.27,2.54,5.56,4.07,10.78,9.07,12.65,15.41.73,2.89,1.07,5.87,1.01,8.85.09.93-.05,1.86-.4,2.72-.67,1.34-2.24,2.07-3.26,3.21-1.9,2.13-1.56,5.2-1.8,7.95-.62,5.75-3.94,10.86-8.94,13.77-1.02.5-1.97,1.15-2.8,1.93-.63.83-1.14,1.73-1.54,2.69-2,3.84-7.04,6.38-11.64,6.51Z" style="fill: #3f3d56;"/>
      <polygon points="192.6 10.67 179.28 18.05 193.48 13.04 192.6 10.67" style="fill: #79758c;"/>
      <ellipse cx="196.29" cy="10.81" rx="3.72" ry="7.49" transform="translate(6.26 61.17) rotate(-17.99)" style="fill: #3f3d56;"/>
      <ellipse cx="207.87" cy="5.1" rx="2.8" ry="5.29" transform="translate(8.59 64.47) rotate(-17.99)" style="fill: #3f3d56;"/>
      <polygon points="197.15 6.49 205.98 3.3 207.86 8.5 199.31 14.28 197.15 6.49" style="fill: #3f3d56;"/>
      <polygon points="282.6 382.67 269.28 390.05 283.48 385.04 282.6 382.67" style="fill: #79758c;"/>
      <ellipse cx="286.29" cy="382.81" rx="3.72" ry="7.49" transform="translate(-104.26 107.16) rotate(-17.99)" style="fill: #3f3d56;"/>
      <ellipse cx="297.87" cy="377.1" rx="2.8" ry="5.29" transform="translate(-101.93 110.46) rotate(-17.99)" style="fill: #3f3d56;"/>
      <polygon points="287.14 378.49 295.98 375.3 297.86 380.5 289.31 386.28 287.14 378.49" style="fill: #3f3d56;"/>
    </g>
  </g>
</svg>