<?xml version="1.0" encoding="UTF-8"?>
<svg id="b" data-name="Capa 2" xmlns="http://www.w3.org/2000/svg" viewBox="0 0 826.3 603.5">
  <g id="c" data-name="bb5d7bf9-f1d1-4967-8b85-2debba85734f">
    <g>
      <rect x="343.06" y="42.5" width="180" height="24" rx="5.42" ry="5.42" style="fill: #4285f4;"/>
      <rect x="321.06" y=".5" width="462" height="531" rx="5.42" ry="5.42" style="fill: none; stroke: #3f3d56; stroke-miterlimit: 10;"/>
      <rect x="348.06" y="35.5" width="180" height="24" rx="5.42" ry="5.42" style="fill: none; stroke: #3f3d56; stroke-miterlimit: 10;"/>
      <rect x="366.56" y="123.5" width="361" height="12" rx="5.42" ry="5.42" style="fill: #f2f2f2;"/>
      <rect x="367.06" y="161.5" width="361" height="12" rx="5.42" ry="5.42" style="fill: #f2f2f2;"/>
      <rect x="367.56" y="199.5" width="361" height="12" rx="5.42" ry="5.42" style="fill: #f2f2f2;"/>
      <rect x="371.56" y="118.5" width="361" height="12" rx="5.42" ry="5.42" style="fill: none; stroke: #3f3d56; stroke-miterlimit: 10;"/>
      <rect x="372.06" y="156.5" width="361" height="12" rx="5.42" ry="5.42" style="fill: none; stroke: #3f3d56; stroke-miterlimit: 10;"/>
      <rect x="372.56" y="194.5" width="361" height="12" rx="5.42" ry="5.42" style="fill: none; stroke: #3f3d56; stroke-miterlimit: 10;"/>
      <path d="m609.69,308.5h-122.27c-2.69,0-4.87,2.18-4.87,4.87h0v16.27c0,2.69,2.18,4.87,4.87,4.87h6.63v82.63c0,2.69,2.18,4.87,4.87,4.87h92.27c2.69,0,4.87-2.18,4.87-4.87h0v-82.63h13.63c2.69,0,4.87-2.18,4.87-4.87h0v-16.27c0-2.69-2.18-4.87-4.87-4.87h0Z" style="fill: #f2f2f2;"/>
      <path d="m504.06,329.5h102v79.06c0,5.22-4.23,9.44-9.44,9.44h-83.11c-5.22,0-9.44-4.23-9.44-9.44h0v-79.06h0Z" style="fill: none; stroke: #3f3d56; stroke-miterlimit: 10;"/>
      <rect x="489.56" y="303.5" width="132" height="26" rx="7.69" ry="7.69" style="fill: none; stroke: #3f3d56; stroke-miterlimit: 10;"/>
      <rect x="537.06" y="307" width="24.5" height="111" style="fill: #4285f4;"/>
      <rect x="545.56" y="303.5" width="20" height="114" style="fill: none; stroke: #3f3d56; stroke-miterlimit: 10;"/>
      <path d="m546.4,277.72c6.82,11.69,5,25.45,5,25.45,0,0-12.87-5.19-19.69-16.88s-9.06-23.08-5-25.45,12.87,5.19,19.69,16.88Z" style="fill: #4285f4;"/>
      <path d="m562.4,277.72c-6.82,11.69-5,25.45-5,25.45,0,0,12.87-5.19,19.69-16.88s9.06-23.08,5-25.45-12.87,5.19-19.69,16.88Z" style="fill: #4285f4;"/>
      <path d="m549.4,277.72c6.82,11.69,5,25.45,5,25.45,0,0-12.87-5.19-19.69-16.88s-9.06-23.08-5-25.45,12.87,5.19,19.69,16.88Z" style="fill: none; stroke: #3f3d56; stroke-miterlimit: 10;"/>
      <path d="m559.4,277.72c-6.82,11.69-5,25.45-5,25.45,0,0,12.87-5.19,19.69-16.88s9.06-23.08,5-25.45-12.87,5.19-19.69,16.88Z" style="fill: none; stroke: #3f3d56; stroke-miterlimit: 10;"/>
      <path d="m154.19,69.59s20.21,37.99,16.98,58.21-6.47,37.99,0,47.7-34.76-1.62-34.76-1.62v-56.59l17.78-47.7Z" style="fill: #ff6584;"/>
      <path d="m197.44,171.85s-48.91,54.57-64.27,40.82-29.51-46.48-18.19-56.99c6.11-5.67,6.56-16.53,5.69-25.33-.46-4.55-1.28-9.06-2.46-13.48,0,0,24.25-7.28,25.06,7.28.06,1.71.51,3.38,1.32,4.89,4.63,8.22,19.7,4,19.7,4l33.14,38.8Z" style="fill: #fbbebe;"/>
      <path d="m161.06,135.48l3.23-2.43c12.92-.67,25.84,1.25,37.99,5.66,19.4,7.28,53.35,13.74,63.06,11.32s33.14-7.28,33.14-7.28c0,0,25.87-10.51,31.53,2.43,5.66,12.93-34.76,12.93-34.76,12.93,0,0-28.7,11.72-48.91,10.11s-46.48,7.68-58.61-2.02-26.68-30.72-26.68-30.72Z" style="fill: #fbbebe;"/>
      <path d="m64.86,444.29h-21.83l-8.08,16.17,10.51,11.32s20.21-2.43,25.87-8.89c5.66-6.47-6.47-18.59-6.47-18.59Z" style="fill: #fbbebe;"/>
      <path d="m61.51,444.29s9.01-4.04,3.35-8.89-10.51-11.32-19.4-4.85S-7.09,470.16.99,481.47s10.51,8.89,14.55,6.47,16.98-12.13,27.49-12.13,6.47-13.74,2.43-17.78,12.7-13.74,16.05-13.74Z" style="fill: #3f3d56;"/>
      <path d="m145.7,547.76l-8.89,15.36,8.89,9.7h25.06s-8.08-16.17-4.85-23.44-20.21-1.62-20.21-1.62Z" style="fill: #fbbebe;"/>
      <path d="m170.76,559.08s-8.89,9.7-14.55,8.08-15.5-10.79-15.5-10.79c0,0-14.41,14.02-7.95,20.49s32.34,18.59,39.61,23.44,31.53,1.62,30.72-4.04-12.93-12.13-18.59-19.4-13.74-17.78-13.74-17.78Z" style="fill: #3f3d56;"/>
      <path d="m213.6,293.92s17.78,55.78-6.47,121.26c0,0-21.83,96.2-29.91,115.6s-8.08,27.49-8.08,27.49c0,0-30.72.81-28.29-5.66,0,0,10.51-31.53,10.51-43.65s16.98-77.61,16.98-77.61l5.66-139.85,39.61,2.43Z" style="fill: #3f3d56;"/>
      <path d="m213.6,293.92s17.78,55.78-6.47,121.26c0,0-21.83,96.2-29.91,115.6s-8.08,27.49-8.08,27.49c0,0-30.72.81-28.29-5.66,0,0,10.51-31.53,10.51-43.65s16.98-77.61,16.98-77.61l5.66-139.85,39.61,2.43Z" style="isolation: isolate; opacity: .1;"/>
      <path d="m209.56,297.97s0,25.87-16.98,37.19c0,0,12.93,90.54-3.23,107.52s-42.85,9.7-42.85,9.7c0,0-44.46,2.43-77.61,15.36,0,0-25.87-7.28-4.85-25.87,0,0,25.87-6.47,33.95-12.13s45.27-16.98,54.97-12.13c0,0-.81-13.74-4.04-23.44-2.91-8.74-8.08-35.57-8.08-35.57,0,0-22.64-42.85,0-65.48s68.71,4.85,68.71,4.85Z" style="fill: #3f3d56;"/>
      <path d="m144.59,129.05c-7.44,3.74-16.11,4.22-23.92,1.31-.46-4.55-1.28-9.06-2.46-13.48,0,0,24.25-7.28,25.06,7.28.06,1.71.51,3.38,1.32,4.89Z" style="isolation: isolate; opacity: .1;"/>
      <circle cx="131.15" cy="99.91" r="29.91" style="fill: #fbbebe;"/>
      <path d="m129.53,211.47s33.95,24.25,18.59,50.12-10.51,40.42-10.51,40.42c0,0,29.1,0,38.8,6.47s40.42-4.85,40.42-4.85c0,0,4.85-32.34-1.62-47.7s-9.7-39.61-7.28-44.46,8.89-27.49-6.47-40.42l-8.74-4.7s5.51,23.29-31.68,8.74c0,0-8.08,47.7-31.53,36.38Z" style="fill: #4285f4;"/>
      <polygon points="161.48 133.65 162.32 134.53 192.96 166.62 193.9 167.6 193.96 167.79 194.57 169.7 195.8 173.58 190.98 168.23 161.26 135.32 159.95 133.88 161.48 133.65" style="fill: #4285f4;"/>
      <path d="m163.62,177.55s-25.2-21.86-42.99-16.2,8.62,53.76,14.01,54.36l2.16-.2s-33.14-40.42-14.55-52.55c0,0,23.44,2.43,41.23,16.98l.14-2.39Z" style="fill: #4285f4;"/>
      <path d="m148.12,172.66l59.01,18.59,97.82,5.66s28.29.81,23.44,13.74-30.72,3.23-30.72,3.23l-84.07,1.62s-69.52-7.28-75.18-11.32,3.23-33.95,9.7-31.53Z" style="fill: #fbbebe;"/>
      <path d="m122.25,124.97s-3.23-6.47,3.23-13.74c3.29-3.7,6.17-11.6,8.19-18.46,1.93-6.54,8.42-10.62,15.15-9.53,5.79.93,11.89,1.23,13.84-1.11,4.04-4.85-.81-30.72-32.34-25.06s-51.74-7.28-51.74,23.44,19.4,39.61,5.66,70.33-40.42,33.95-25.06,54.16c15.36,20.21,55.78,25.87,58.21,18.59s-9.7-35.57-1.62-46.89,21.83-23.44,17.78-30.72-11.32-21.02-11.32-21.02Z" style="fill: #ff6584;"/>
      <line x1="26.56" y1="603" x2="342.56" y2="603" style="fill: none; stroke: #3f3d56; stroke-miterlimit: 10;"/>
      <path d="m758.78,165.43c10.8,3.93,22.74-1.65,26.67-12.45,3.93-10.8-1.65-22.74-12.45-26.67-3.67-1.33-7.63-1.61-11.45-.8l.52,10.71-5.07-9.18c-4.97,2.34-8.82,6.55-10.68,11.72-.66,1.81-1.07,3.71-1.2,5.63-.66,9.27,4.92,17.86,13.66,21.03Z" style="fill: #57b894;"/>
      <path d="m783.85,289.68c-1.79-9.11,5.96-17.19,13.62-22.44s16.6-10.41,19.22-19.32c3.76-12.8-7.43-24.53-16.14-34.64-6.46-7.5-12.01-15.75-16.52-24.56-1.81-3.53-3.48-7.23-3.95-11.17-.69-5.68,1.14-11.32,2.97-16.74,6.12-18.03,12.66-35.92,19.63-53.65" style="fill: none; stroke: #3f3d56; stroke-miterlimit: 10;"/>
      <path d="m759.63,162.68c10.8,3.93,22.74-1.65,26.67-12.45,3.93-10.8-1.65-22.74-12.45-26.67-3.67-1.33-7.63-1.61-11.45-.8l.52,10.71-5.07-9.18c-4.97,2.34-8.82,6.55-10.68,11.72-.66,1.81-1.07,3.71-1.2,5.63-.66,9.27,4.92,17.86,13.66,21.03Z" style="fill: none; stroke: #3f3d56; stroke-miterlimit: 10;"/>
      <path d="m781.31,103.47c2.42-6.67,8.06-11.64,14.98-13.2l1.71,10.18,3.18-10.7c11.49.17,20.67,9.62,20.5,21.12-.17,11.49-9.62,20.67-21.12,20.5-11.49-.17-20.67-9.62-20.5-21.12.03-2.32.46-4.61,1.25-6.79Z" style="fill: #57b894;"/>
      <path d="m782.45,99.8c2.42-6.67,8.06-11.64,14.98-13.2l1.71,10.18,3.18-10.7c11.49.17,20.67,9.62,20.5,21.12s-9.62,20.67-21.12,20.5c-11.49-.17-20.67-9.62-20.5-21.12.03-2.32.46-4.61,1.25-6.79Z" style="fill: none; stroke: #3f3d56; stroke-miterlimit: 10;"/>
      <path d="m796.9,213.49c10.8,3.92,22.74-1.66,26.66-12.47,3.3-9.11-.11-19.29-8.24-24.56l-2.44,8.22-1.73-10.3s-.03-.01-.05-.02c-10.8-3.93-22.74,1.64-26.67,12.44-3.93,10.8,1.64,22.74,12.44,26.67.01,0,.03,0,.04.01h0Z" style="fill: #57b894;"/>
      <path d="m797.89,209.76c10.8,3.92,22.74-1.66,26.66-12.47,3.3-9.11-.11-19.29-8.24-24.56l-2.44,8.22-1.73-10.3s-.03-.01-.05-.02c-10.8-3.93-22.74,1.64-26.67,12.44-3.93,10.8,1.64,22.74,12.44,26.67.01,0,.03,0,.04.01h0Z" style="fill: none; stroke: #3f3d56; stroke-miterlimit: 10;"/>
      <path d="m775.24,248.05c1.99,11.31,12.77,18.88,24.09,16.89,11.31-1.99,18.88-12.77,16.89-24.09s-12.77-18.88-24.09-16.89c-5.11.9-9.71,3.68-12.88,7.79l9.27,13.96-12.67-7.41c-.98,3.15-1.19,6.5-.61,9.75Z" style="fill: #57b894;"/>
      <path d="m776.09,245.29c1.99,11.31,12.77,18.88,24.09,16.89s18.88-12.77,16.89-24.09c-1.99-11.31-12.77-18.88-24.09-16.89-5.11.9-9.71,3.68-12.88,7.79l9.27,13.96-12.67-7.41c-.98,3.15-1.19,6.5-.61,9.75Z" style="fill: none; stroke: #3f3d56; stroke-miterlimit: 10;"/>
    </g>
  </g>
</svg>