<?xml version="1.0" encoding="UTF-8"?>
<svg id="b" data-name="Capa 2" xmlns="http://www.w3.org/2000/svg" viewBox="0 0 139.24 93.75">
  <g id="c" data-name="Capa 1">
    <g>
      <path d="m31.23,10.06c0-2.99.93-5.42,2.79-7.28s4.23-2.79,7.12-2.79,5.24.93,7.04,2.79c1.8,1.86,2.71,4.28,2.71,7.28s-.9,5.37-2.71,7.12c-1.81,1.75-4.16,2.63-7.04,2.63s-5.26-.88-7.12-2.63c-1.86-1.76-2.79-4.13-2.79-7.12Z" style="fill: #fff;"/>
      <path d="m88.35,10.06c0-2.99.93-5.42,2.79-7.28,1.86-1.86,4.18-2.79,6.97-2.79,2.99,0,5.39.93,7.2,2.79,1.8,1.86,2.71,4.28,2.71,7.28s-.9,5.37-2.71,7.12c-1.81,1.75-4.21,2.63-7.2,2.63-2.79,0-5.11-.88-6.97-2.63-1.86-1.76-2.79-4.13-2.79-7.12Z" style="fill: #fff;"/>
      <path d="m3.19,76.41c-1.55-.93-2.53-2.19-2.94-3.79-.41-1.6-.31-3.12.31-4.57.62-1.45,1.7-2.48,3.25-3.1,1.55-.62,3.51-.52,5.88.31,6.81,2.79,13.5,5.01,20.05,6.66,6.55,1.65,13.13,2.92,19.74,3.79,6.6.88,13.31,1.32,20.13,1.32s13.65-.46,20.2-1.39c6.55-.93,13.11-2.24,19.66-3.95,6.55-1.7,13.24-3.85,20.05-6.43,2.37-.83,4.33-.9,5.88-.23,1.55.67,2.63,1.73,3.25,3.17.62,1.44.75,2.94.39,4.49-.36,1.55-1.37,2.79-3.02,3.72-10.32,5.98-21.08,10.37-32.28,13.16-11.2,2.79-22.58,4.18-34.14,4.18-7.64,0-15.25-.65-22.84-1.94-7.59-1.29-15.04-3.17-22.37-5.65-7.33-2.48-14.4-5.73-21.21-9.75Z" style="fill: #fff;"/>
    </g>
  </g>
</svg>